<svg width="96" height="96" viewBox="0 0 96 96" fill="none" xmlns="http://www.w3.org/2000/svg">
  <rect width="96" height="96" rx="24" fill="#050505"/>
  <path d="M29 63.5C22.6 59.6 18.5 52.6 18.5 44.8C18.5 32.7 28.4 22.9 40.5 22.9H53.8C67.1 22.9 77.8 33.6 77.8 46.9C77.8 60.1 67.1 70.9 53.8 70.9H38.8L27.2 77.5L29 63.5Z" stroke="white" stroke-width="5" stroke-linejoin="round"/>
  <path d="M35.5 47.6H54.9C59.1 47.6 62.5 44.2 62.5 40C62.5 35.8 59.1 32.4 54.9 32.4H48.4" stroke="#A78BFA" stroke-width="5" stroke-linecap="round"/>
  <path d="M60.5 48.4H41.1C36.9 48.4 33.5 51.8 33.5 56C33.5 60.2 36.9 63.6 41.1 63.6H47.6" stroke="#38BDF8" stroke-width="5" stroke-linecap="round"/>
  <path d="M48 16V10" stroke="#F8FAFC" stroke-width="4" stroke-linecap="round"/>
  <path d="M48 86V80" stroke="#F8FAFC" stroke-width="4" stroke-linecap="round"/>
  <path d="M80 16L84 12" stroke="#F8FAFC" stroke-width="4" stroke-linecap="round"/>
  <path d="M16 80L12 84" stroke="#F8FAFC" stroke-width="4" stroke-linecap="round"/>
  <circle cx="73.5" cy="22.5" r="4.5" fill="#F8FAFC"/>
  <circle cx="22.5" cy="73.5" r="4.5" fill="#F8FAFC"/>
</svg>
